<?xml version="1.0" encoding="utf-8"?>
<!DOCTYPE svg PUBLIC "-//W3C//DTD SVG 1.1//EN" "http://www.w3.org/Graphics/SVG/1.1/DTD/svg11.dtd">
<svg version="1.1" id="图形" xmlns="http://www.w3.org/2000/svg" xmlns:xlink="http://www.w3.org/1999/xlink" x="0px" y="0px" width="1024px" height="1024px" viewBox="0 0 1024 1024" enable-background="new 0 0 1024 1024" xml:space="preserve">
  <path fill="#000000" d="M360.042803 127.589975c4.013778-1.216296 9.365483-7.419408 18.122817-18.244447 31.623708-38.678228 61.544601-78.694382 94.262977-116.521202 13.500891-15.690224 14.595558-18.730966 16.663262-12.284594 10.33852 32.596745 20.433781 62.396009 11.311557 76.140159-21.528448 25.785485-76.626678 91.708754-98.155125 117.494239L360.042803 127.589975zM371.840879 169.065685c3.162371 16.784891 8.270816 33.569783 9.000594 50.476304 1.094667 26.636893 12.892743 31.01556 37.218672 31.258819 31.745338 0.364889 87.816605 0.364889 119.926832 0 7.05452-0.12163 0.851408-0.851408-0.243259 5.838223-4.013778 24.325929-16.541632 53.638674-41.718969 54.125193-30.772301 0.486519-53.152156 0-84.046086 0-11.798076 0-23.109633 3.648889-21.650077 20.433781 4.135408 47.192303 0.486519 94.627866 5.594964 141.820169 2.067704 18.974225 9.608742 25.177337 27.366671 24.569189 23.474522-0.851408 65.923269-0.486519 89.397791 0 27.60993 0.486519 33.934672-7.784297 5.716593 40.745932-8.757335 14.960447-20.55541 12.527854-34.42119 12.527854-58.868749 0-121.021499 0.486519-180.011878 0-19.825632-0.12163-23.352892 9.973631-16.298373 29.677634 6.689631 18.852595 14.717187 53.517045 20.79867 72.612899 5.594964 17.757928-0.12163 13.500891-0.12163 13.500891-24.569189-14.230669-67.139565-32.718375-77.113196-58.017342C206.911077 546.725739 178.936258 468.517876 153.150773 407.094904c-2.310963-5.351704-4.013778-5.959853 13.500891-1.581185 32.596745 8.149186 64.828602 25.542226 80.397197 56.071267 19.095855 37.461931 23.109633 39.286376 63.490676 36.002376 12.406224-0.973037 17.514669-4.865186 17.14978-18.122817-1.337926-46.340896-2.189334-92.803421-1.824445-139.265946 0.243259-20.55541-8.149186-30.042523-27.73156-29.434375-30.772301 0.973037-65.193491-0.608148-95.965792 0-19.825632 0.364889-41.718969-19.825632-45.124599-46.462525-1.459556-10.33852-4.013778-13.379261-2.919112-13.500891 35.394227 0.364889 102.655422-0.973037 137.92802 0 18.974225 0.486519 26.636893-3.770519 23.474522-23.961041C308.106944 179.525834 294.362794 134.522865 271.861309 92.560637 244.00812 40.746407 207.154337-3.770044 161.543219-41.110346c-5.351704-4.378667-13.500891-8.757335-11.189928-17.14978 2.432593-9.000594 11.676446-7.905927 18.487706-7.662668 43.178525 1.581185 85.019123 6.568001 115.669795 43.178525 30.89393 36.853783 49.868155 79.910678 66.653047 124.305499L371.840879 169.065685zM628.114546 52.787742 628.114546 490.776102 814.086276 490.776102l0-437.98836-59.963416 0-84.897494-54.611712-17.14978 54.611712L628.114546 52.787742M874.049692 544.779665 568.0295 544.779665l0-545.873857 59.963416 0 17.514669-65.68001 90.370828 65.68001 137.92802 0L873.806433 543.441739" transform="translate(0, 812) scale(1, -1)"/>
</svg>
