<?xml version="1.0" encoding="utf-8"?>
<!DOCTYPE svg PUBLIC "-//W3C//DTD SVG 1.1//EN" "http://www.w3.org/Graphics/SVG/1.1/DTD/svg11.dtd">
<svg version="1.1" id="图形" xmlns="http://www.w3.org/2000/svg" xmlns:xlink="http://www.w3.org/1999/xlink" x="0px" y="0px" width="1024px" height="1024px" viewBox="0 0 1024 1024" enable-background="new 0 0 1024 1024" xml:space="preserve">
  <path fill="#000000" d="M169.916 59.584c33.173-30.046 80.854-57.015 126.472-57.015 33.173 0 70.485 14.515 70.485 53.911 0 43.532-50.797 50.788-107.809 75.675-64.27 27.995-118.18 62.193-118.18 144.097 0 106.772 86.044 152.378 192.815 152.378 58.052 0 120.256-13.483 164.823-42.502v-12.434l-41.464-81.904c-29.021 21.766-68.42 36.276-111.961 36.276-38.352 0-62.193-15.539-62.193-45.605 0-39.381 45.617-47.683 102.63-69.45 78.779-30.068 126.461-63.24 126.461-147.199 0-109.876-86.034-157.577-200.061-157.577-72.571 0-130.623 19.707-185.56 61.164l-0 12.433 43.542 77.751zM638.404-90.698c0 10.514 2.084 296.641 3.128 395.519-28.364-1.044-57.855-1.044-66.239-1.044l1.044 106.242c8.425 0 36.832 0 64.152-1.044 0 4.213-2.084 91.518-2.084 94.668 0 118.858 69.41 163.054 159.882 163.054 38.918 0 78.877-6.32 118.882-23.151v-15.767l-30.533-84.155c-16.812 9.47-35.749 14.724-52.6 14.724-29.448 0-48.386-14.724-48.386-70.473 0-18.936 1.084-74.686 1.084-78.9 31.536 1.044 91.518 1.044 99.903 1.044l-1.044-106.242c-8.427 0-68.367 0-99.943 1.044 2.126-98.878 2.126-385.005 2.126-395.519l-149.372-0z" transform="translate(0, 812) scale(1, -1)"/>
</svg>
