<?xml version="1.0" encoding="utf-8"?>
<!DOCTYPE svg PUBLIC "-//W3C//DTD SVG 1.1//EN" "http://www.w3.org/Graphics/SVG/1.1/DTD/svg11.dtd">
<svg version="1.1" id="图形" xmlns="http://www.w3.org/2000/svg" xmlns:xlink="http://www.w3.org/1999/xlink" x="0px" y="0px" width="1024px" height="1024px" viewBox="0 0 1024 1024" enable-background="new 0 0 1024 1024" xml:space="preserve">
  <path fill="#272636" d="M377.485377 209.397493c0 2.950192-2.752694 6.016017-8.244778 9.219989-5.504364 3.192715-9.744945 4.79419-12.743232 4.79419-4.00522 0-6.628978-0.62217-7.870248-1.843998-1.25355-1.233084-3.372817-5.28947-6.371104-12.170181-3.501754 0-7.250124-1.601474-11.243065-4.79419-4.00522-3.203972-7.999185-6.522554-11.993149-9.956769-3.501754-2.950192-9.123798-6.638187-16.865109-11.063987-7.753591-4.425799-15.623839-8.609075-23.611767-12.538571-7.999185-3.941775-15.365966-7.375991-22.112624-10.326183-6.746658-2.950192-10.868535-4.425799-12.367679-4.425799l-64.463174 0c-4.00522 0-7.250124 1.348718-9.743922 4.056386-2.506077 2.696412-4.626367 5.900384-6.371104 9.588379-1.757017 3.687996-2.998287 7.375991-3.747347 11.063987-0.74906 3.687996-1.124614 6.269797-1.124614 7.744381L158.612461 299.3809c2.998287 14.255679 6.113231 29.249161 9.369392 44.991704 3.243881 15.731286 4.871961 30.240745 4.871961 43.517119l0 22.12695c0 10.326183 2.998287 18.438954 8.994861 24.340361 5.996574 5.900384 14.241352 8.850575 24.735357 8.850575l22.487154 0c1.499144 0 4.239558 1.106194 8.244778 3.318582 3.993964 2.212388 7.987928 4.54041 11.993149 7.006578 4.989641 2.950192 10.236132 6.384407 15.741519 10.326183l0 14.014178c0 7.375991-3.127224 13.022595-9.369392 16.96437-6.254447 3.929496-12.871145 5.900384-19.863397 5.900384L73.15923 500.737884c-1.499144 0-3.747347-0.49528-6.745634-1.475608-2.998287-0.991584-5.996574-2.708692-8.994861-5.16258-2.998287-2.466168-5.622044-5.531993-7.870248-9.219989-2.249227-3.687996-3.372817-7.998161-3.372817-12.907984 0-10.326183 2.12029-17.21815 6.371104-20.652366 4.239558-3.445472 8.994861-6.522554 14.242376-9.219989 5.246491-2.708692 9.990538-6.638187 14.241352-11.800767 4.239558-5.16258 6.371104-14.636349 6.371104-28.396747l0-8.113795c0-2.950192 1.124614-6.154163 3.372817-9.588379 2.248204-3.445472 3.372817-7.133468 3.372817-11.063987-1.499144-8.366551-2.752694-16.226566-3.747347-23.602557-1.006933-6.396687-1.757017-12.423961-2.249227-18.070564-0.503467-5.658883-0.74906-9.472745-0.74906-11.432377l0-26.552749-5.996574-55.317886 0-61.956074c0-13.771655-3.372817-22.74912-10.119475-26.921139-6.745634-4.183276-14.124695-7.133468-22.112624-8.850575-7.999185-1.728364-15.365966-3.814886-22.112624-6.269797-6.745634-2.466168-10.119475-8.850575-10.119475-19.176758 0-1.970888 0.11768-4.678556 0.37453-8.113795 0.245593-3.445472 0.995677-6.891967 2.249227-10.326183 1.24127-3.434216 3.243881-6.384407 5.996574-8.850575 2.740414-2.454912 6.863315-3.687996 12.367679-3.687996 2.998287 0.991584 5.996574 2.212388 8.994861 3.687996 2.494821 0.991584 5.493108 1.970888 8.994861 2.950192 3.490497 0.991584 7.237845 1.475608 11.244089 1.475608 1.499144 0 4.614088-0.36839 9.369392-1.106194 4.743024-0.737804 9.861602-1.717108 15.365966-2.950192 5.493108-1.221828 10.610662-2.212388 15.365966-2.950192 4.743024-0.737804 7.870248-1.106194 9.369392-1.106194l35.979446 8.113795 9.743922 2.212388c3.490497 2.454912 10.494005 2.696412 20.98801 0.737804s20.98801-2.950192 31.482015-2.950192l35.229362 0c11.489682 0 21.73707 0.25378 30.732955 0.737804 7.987928 0.49528 15.612583 1.106194 22.861684 1.843998 7.237845 0.737804 11.618619 2.085498 13.117762 4.056386 5.996574 3.929496 12.485359 11.6749 19.488867 23.233144 6.992251 11.54801 13.492292 23.602557 19.488867 36.141128 5.996574 12.538571 11.115152 23.844058 15.365966 33.92874C375.35383 202.137135 377.485377 207.921885 377.485377 209.397493zM420.958494 346.586015c10.494005 0 16.865109 0.979304 19.114336 2.950192 2.249227 1.959631 4.871961 2.950192 7.870248 2.950192 7.495718 0 12.859889-2.339278 16.116049-7.006578 3.243881-4.678556 4.871961-8.977465 4.871961-12.907984 0-5.41636-1.124614-11.686157-3.372817-18.808368-2.249227-7.133468-4.626367-14.382569-7.121188-21.75856-2.506077-7.375991-4.871961-14.267958-7.121188-20.652366-2.248204-6.395664-3.372817-11.316743-3.372817-14.750959l0-6.638187c0-6.891967-1.006933-12.538571-2.998287-16.96437-2.00261-4.425799-2.998287-10.326183-2.998287-17.702174l0-34.665521-5.996574-20.652366 0-14.014178c2.998287 0 4.743024-1.475608 5.246491-4.425799 0.49221-2.950192 0.74906-6.395664 0.74906-10.326183l0-11.800767c0-3.941775 1.124614-7.871271 3.372817-11.800767 2.248204-3.941775 5.118578-7.744381 8.620331-11.432377 3.490497-3.687996 7.366781-6.638187 11.618619-8.850575 4.239558-2.212388 8.116865-3.319605 11.618619-3.319605 4.989641 0 10.868535 3.319605 17.615193 9.956769 6.746658 6.638187 13.117762 14.255679 19.114336 22.864754 5.996574 8.596795 11.489682 17.07898 16.490579 25.446555 4.989641 8.355295 8.244778 14.255679 9.743922 17.702174 1.991354 1.475608 5.738701 4.54041 11.244089 9.219989 5.493108 4.6673 10.986215 9.588379 16.490579 14.750959 5.493108 5.16258 10.494005 9.956769 14.991436 14.382569s6.746658 7.375991 6.746658 8.850575c0 3.929496-0.257873 7.375991-0.74906 10.326183-0.503467 2.950192-2.249227 4.425799-5.247514 4.425799l-14.241352 0c-3.501754 0-6.628978-0.864694-9.369392-2.581802-2.752694-1.728364-5.375427-3.814886-7.870248-6.269797-2.00261-2.950192-4.626367-5.658883-7.870248-8.113795-3.25616-2.466168-6.874571-3.687996-10.868535-3.687996-3.501754 0-6.628978 1.106194-9.369392 3.318582-2.752694 2.212388-5.129834 4.909823-7.121188 8.113795-2.00261 3.192715-3.501754 6.384407-4.497431 9.588379-1.006933 3.192715-1.499144 5.773494-1.499144 7.744381 0 5.405103 1.124614 10.199293 3.372817 14.382569 2.249227 4.172019 3.865028 8.228405 4.871961 12.170181 1.991354 5.405103 3.865028 9.830903 5.622044 13.276375 1.744737 3.434216 2.623757 7.860015 2.623757 13.276375l0 8.113795c0.995677 3.929496 1.991354 7.617491 2.998287 11.063987 0.995677 2.950192 1.744737 6.016017 2.249227 9.219989 0.49221 3.192715 0.74906 6.016017 0.74906 8.482185l0 5.900384c0 10.326183 1.124614 19.660782 3.372817 28.027333 2.249227 8.355295 3.372817 17.448394 3.372817 27.290553 0 2.950192-0.257873 5.646604-0.74906 8.113795-1.006933 5.405103-2.998287 9.588379-5.996574 12.538571l6.745634 20.652366c0 6.879688-2.752694 13.392008-8.244778 19.546172-5.504364 6.142907-12.496615 9.219989-20.98801 9.219989-2.998287 0-9.744945-3.318582-20.23895-9.956769-10.494005-6.638187-21.36254-14.267958-32.606629-22.864754-11.243065-8.609075-21.245883-17.21815-29.982872-25.814945-8.749268-8.609075-13.117762-15.120372-13.117762-19.545148l0-11.800767c0-4.425799 0.995677-8.113795 2.998287-11.063987C418.955884 348.303122 419.951561 347.070039 420.958494 346.586015zM492.167303 537.617839c3.993964-7.375991 10.119475-13.403265 18.364253-18.070564 8.244778-4.678556 15.858176-7.006578 22.861684-7.006578 4.989641-0.991584 9.369392-0.12689 13.117762 2.581802 3.748371 2.696412 6.992251 6.142907 9.744945 10.326183 2.740414 4.172019 4.989641 8.723685 6.745634 13.644765 1.744737 4.909823 3.114944 9.093099 4.122901 12.538571 0 6.384407 0.995677 11.6749 2.998287 15.858176 1.991354 4.172019 2.998287 7.744381 2.998287 10.694573 0 3.434216-0.37453 7.122211-1.124614 11.063987-0.750083 3.929496-1.124614 7.860015-1.124614 11.800767-4.00522 6.384407-7.003508 12.538571-8.994861 18.438954-2.00261 5.900384-6.500041 10.072403-13.492292 12.538571-1.499144 0-3.876284-0.36839-7.121188-1.106194-3.25616-0.737804-6.628978-1.475608-10.119475-2.212388-3.501754-0.737804-6.874571-1.475608-10.119475-2.212388-3.25616-0.737804-5.879917-1.106194-7.870248-1.106194-6.500041-9.346879-11.993149-18.197454-16.490579-26.552749-4.497431-8.366551-6.745634-19.176758-6.745634-32.453133 0-4.425799-0.503467-9.588379-1.499144-15.488763C487.413022 544.992807 488.665549 540.568031 492.167303 537.617839zM803.606451 393.421716c3.243881 3.687996 5.996574 7.375991 8.244778 11.063987 2.249227 3.687996 3.372817 6.269797 3.372817 7.744381l0 14.750959c-2.998287 0.979304-5.750981 2.212388-8.245801 3.687996-2.506077 0.979304-4.871961 1.959631-7.121188 2.950192-2.249227 0.979304-4.122901 1.475608-5.622044 1.475608l-23.236214 0c-3.501754 0-7.495718 0.242524-11.993149 0.737804-4.497431 0.484024-8.749268 1.717108-12.742209 3.687996-4.00522 1.958608-7.379061 4.425799-10.119475 7.375991-2.752694 2.950192-4.122901 7.122211-4.122901 12.538571 4.497431 22.12695 8.736988 42.525536 12.743232 61.21827 3.490497 15.731286 6.992251 30.978549 10.494005 45.729507 3.490497 14.750959 5.996574 24.823362 7.495718 30.240745 3.490497 7.375991 8.116865 13.022595 13.866822 16.96437 5.738701 3.929496 11.618619 7.006578 17.615193 9.219989 5.996574 2.212388 11.993149 3.929496 17.989723 5.16258 5.996574 1.221828 10.986215 2.581802 14.991436 4.056386 2.998287 1.959631 6.242168 3.192715 9.744945 3.687996 3.490497 0.484024 6.992251 0.852414 10.494005 1.106194 3.490497 0.242524 7.121188 0.979304 10.868535 2.212388 3.748371 1.221828 7.366781 3.561106 10.868535 7.006578 1.499144 0.979304 3.490497 3.803629 5.996574 8.482185 2.494821 4.6673 5.118578 9.830903 7.870248 15.488763 2.740414 5.646604 4.989641 11.178597 6.746658 16.594957 1.744737 5.405103 2.623757 9.588379 2.623757 12.538571 0 5.900384-1.62808 12.170181-4.871961 18.808368-3.25616 6.638187-7.624654 12.538571-13.117762 17.702174-5.504364 5.16258-11.747555 9.093099-18.739806 11.800767-7.003508 2.696412-14.241352 3.065825-21.73707 1.106194l-12.743232 0c-5.504364 0-10.119475-0.864694-13.866822-2.581802-3.748371-1.728364-7.250124-3.814886-10.494005-6.269797-3.25616-2.466168-6.371104-5.047969-9.369392-7.744381-2.998287-2.708692-6.254447-4.79419-9.744945-6.269797-7.495718-6.891967-13.492292-13.276375-17.989723-19.176758-4.497431-5.900384-10.248412-12.297071-17.240663-19.176758-4.00522-2.950192-8.373715-6.891967-13.117762-11.800767-4.755304-4.92108-9.252735-10.326183-13.492292-16.226566-4.251837-5.900384-7.870248-11.927657-10.868535-18.070564-2.998287-6.154163-4.497431-12.170181-4.497431-18.070564s-1.499144-12.170181-4.497431-18.808368c-2.998287-6.638187-5.750981-11.927657-8.244778-15.858176 0-3.445472-0.257873-8.977465-0.74906-16.594957-0.503467-7.629771-1.25355-16.226566-2.249227-25.814945-1.006933-9.588379-2.249227-19.798928-3.748371-30.609135-1.499144-10.821463-2.998287-20.906146-4.497431-30.240745-1.499144-9.346879-3.25616-17.45965-5.247514-24.340361-2.00261-6.891967-4.00522-11.559267-5.996574-14.014178-2.00261-4.92108-5.375427-8.366551-10.119475-10.326183-4.755304-1.970888-9.872858-3.319605-15.365966-4.056386-5.504364-0.737804-10.997472-1.728364-16.490579-2.950192-5.504364-1.233084-9.744945-3.572362-12.743232-7.006578-4.00522-2.950192-6.371104-6.269797-7.121188-9.956769-0.74906-3.687996-1.124614-7.260357-1.124614-10.694573 0-5.41636 2.869351-9.104355 8.620331-11.063987 5.738701-1.970888 12.238742-3.687996 19.488867-5.16258 7.237845-1.475608 13.737886-3.687996 19.488867-6.638187 5.738701-2.950192 8.620331-7.629771 8.620331-14.014178-1.006933-3.941775-2.00261-7.871271-2.998287-11.800767-1.006933-3.445472-1.757017-7.260357-2.249227-11.432377-0.503467-4.183276-0.74906-7.998161-0.74906-11.432377-1.499144-5.900384-3.25616-14.014178-5.247514-24.340361-2.00261-10.326183-4.00522-21.642926-5.996574-33.92874-2.00261-12.297071-4.122901-24.835641-6.371104-37.615713-2.249227-12.792351-4.251837-24.466228-5.996574-35.034934-1.757017-10.579963-3.127224-19.546172-4.122901-26.921139-1.006933-7.375991-1.499144-11.559267-1.499144-12.538571l0-14.014178c0-2.466168-0.750083-8.366551-2.249227-17.702174-1.499144-9.346879-3.63069-20.282952-6.371104-32.821523-2.752694-12.538571-5.750981-25.814945-8.994861-39.829124-3.25616-14.014178-6.628978-26.921139-10.119475-38.72293-3.501754-11.800767-6.746658-21.87317-9.744945-30.240745-2.998287-8.355295-5.750981-12.781094-8.244778-13.276375-7.495718-8.355295-15.108093-14.866592-22.861684-19.546172-7.741311-4.6673-16.865109-7.006578-27.359115-7.006578l-16.490579 0c-1.499144 0-3.747347 0.12689-6.745634 0.36839-2.998287 0.25378-5.738701 0.864694-8.245801 1.843998-2.998287 0.49528-6.242168 1.233084-9.743922 2.212388l-18.739806 5.900384c-0.995677 0.991584-2.365884 2.097778-4.122901 3.318582-1.744737 1.233084-3.114944 2.339278-4.122901 3.319605-1.991354 1.474584-3.490497 2.708692-4.497431 3.687996l-12.743232 0c-3.993964 0-9.240455-1.590218-15.740496-4.79419-6.488785-3.192715-12.743232-6.753821-18.739806-10.694573-5.996574-3.929496-11.115152-7.986905-15.365966-12.170181-4.239558-4.172019-6.371104-7.249101-6.371104-9.219989-1.499144-1.475608-3.747347-4.425799-6.745634-8.850575-2.998287-4.425799-5.996574-9.093099-8.994861-14.014178-2.998287-4.909823-5.622044-9.461489-7.870248-13.644765-2.249227-4.172019-3.372817-7.006578-3.372817-8.482185 0-5.405103 2.37714-9.956769 7.121188-13.644765 4.755304-3.687996 10.248412-6.880711 16.490579-9.588379 6.254447-2.696412 12.367679-4.6673 18.364253-5.900384 5.996574-1.221828 10.001795-1.843998 11.993149-1.843998 1.499144 0 4.497431-0.242524 8.994861-0.737804 4.497431-0.484024 9.369392-0.979304 14.616906-1.474584 5.247514-0.484024 10.377348-0.979304 15.365966-1.475608 5.000897-0.484024 8.749268-0.737804 11.243065-0.737804 2.998287 0 5.622044 0.12689 7.870248 0.36839 2.249227 0.25378 4.380774 0.864694 6.371104 1.843998 1.006933 0.991584 2.623757 1.233084 4.871961 0.737804 2.249227-0.484024 4.871961-0.737804 7.870248-0.737804l5.996574 0c4.497431 0 8.128121 0.36839 10.868535 1.106194 2.752694 0.737804 5.622044 1.728364 8.620331 2.950192 2.998287 1.233084 6.125511 2.212388 9.369392 2.950192 3.25616 0.737804 7.624654 1.106194 13.117762 1.106194 5.996574 0 13.117762 2.950192 21.36254 8.850575 8.245801 5.900384 16.607236 12.538571 25.110911 19.914562 8.491395 7.375991 16.361643 14.382569 23.611767 21.020756 7.237845 6.638187 12.367679 10.694573 15.365966 12.170181 3.993964 11.316743 7.987928 19.798928 11.993149 25.446555 3.993964 5.658883 8.994861 12.170181 14.991436 19.546172 1.991354 3.445472 4.368494 8.850575 7.121188 16.226566 2.740414 7.375991 5.247514 15.004739 7.495718 22.864754 2.248204 7.871271 4.239558 15.120372 5.996574 21.75856 1.744737 6.638187 2.623757 10.948353 2.623757 12.907984 0 3.445472 0.37453 6.269797 1.124614 8.482185 0.74906 2.212388 1.744737 4.79419 2.998287 7.744381 1.24127 2.950192 2.249227 6.765077 2.998287 11.432377 0.750083 4.678556 1.124614 11.190877 1.124614 19.546172 0 1.970888 0.245593 5.047969 0.750083 9.219989 0.49221 4.172019 1.124614 8.482185 1.873674 12.907984 0.74906 4.425799 1.499144 8.597819 2.249227 12.538571 0.74906 3.929496 1.124614 6.638187 1.124614 8.112772l2.249227 35.403325c0 3.434216 0.621147 9.334599 1.873674 17.702174 1.24127 8.355295 2.740414 17.07898 4.497431 26.184359 1.744737 9.093099 3.243881 17.448394 4.497431 25.077142 1.24127 7.617491 1.873674 12.411681 1.873674 14.382569 0 6.384407 0.995677 17.07898 2.998287 32.084743 1.991354 14.993482 2.998287 31.093159 2.998287 48.311309 0 1.475608 0.245593 3.319605 0.74906 5.531993 0.49221 2.212388 1.24127 4.54041 2.249227 7.006578 0.995677 2.454912 1.991354 5.16258 2.998287 8.113795 0 10.326183 2.365884 17.702174 7.121188 22.12695 4.743024 4.425799 14.359033 6.638187 28.858258 6.638187l35.229362 0c1.991354 0 4.614088 1.348718 7.870248 4.056386C797.10641 386.529749 800.350291 389.733721 803.606451 393.421716zM1002.61597 404.116289c-2.00261 8.355295-5.247514 15.731286-9.744945 22.12695-4.497431 6.384407-10.377348 11.432377-17.615193 15.120372-7.250124 3.687996-16.116049 5.531993-26.610054 5.531993-9.498328 0.979304-20.98801-1.359974-34.480302-7.006578-13.492292-5.658883-26.610054-13.160741-39.352263-22.496363-12.743232-9.346879-23.86964-19.798928-33.355689-31.346939-9.498328-11.559267-14.745842-22.74912-15.741519-33.559327L815.223023 328.14706c-1.499144-3.445472-2.998287-6.891967-4.497431-10.326183-2.506077-6.395664-3.747347-12.538571-3.747347-18.438954-2.00261-2.950192-2.998287-5.531993-2.998287-7.744381 0-2.212388 0.245593-4.056386 0.74906-5.531993 0.49221-1.475608 0.750083-2.950192 0.750083-4.425799 0-1.475608-1.006933-2.950192-2.998287-4.425799-0.503467-2.950192-1.382487-8.977465-2.623757-18.070564-1.25355-9.104355-2.623757-18.692734-4.122901-28.765137-1.499144-10.083659-2.752694-19.430538-3.747347-28.027333-1.006933-8.609075-1.499144-13.898545-1.499144-15.858176l0-11.800767-2.249227-14.750959c0.995677-1.475608 1.991354-3.203972 2.998287-5.16258 1.991354-3.941775 2.998287-7.629771 2.998287-11.063987l0-12.538571c-0.503467-3.445472 0.245593-7.629771 2.248204-12.538571 1.991354-4.92108 4.871961-9.715269 8.620331-14.382569 3.747347-4.678556 7.987928-8.723685 12.743232-12.170181 4.743024-3.434216 9.369392-5.405103 13.866822-5.900384 7.495718 0 14.862499 0.25378 22.112624 0.737804 7.237845 0.49528 15.108093 4.425799 23.611767 11.800767 2.998287 2.950192 9.240455 7.617491 18.739806 14.014178 9.487072 6.384407 19.230993 13.887288 29.233811 22.496363 9.990538 8.596795 19.230993 17.943674 27.733645 28.027333 8.491395 10.072403 13.234419 20.525476 14.241352 31.346939 0 6.384407-1.25355 10.072403-3.747347 11.063987-2.506077 0.979304-5.504364 1.475608-8.994861 1.475608-2.00261 0.979304-5.129834 0.36839-9.369392-1.843998-4.251837-2.212388-10.119475-5.047969-17.615193-8.482185-2.00261-1.475608-5.129834-3.687996-9.369392-6.638187-4.251837-2.950192-8.502651-5.785773-12.742209-8.482185-4.251837-2.708692-8.128121-5.047969-11.618619-7.006578-3.501754-1.970888-5.504364-2.708692-5.996574-2.212388-7.003508 0-12.742209 4.056386-17.23964 12.170181-4.497431 8.113795-6.254447 16.3422-5.247514 24.708751l0 30.978549c0.49221 12.284791 3.865028 22.369473 10.119475 30.240745 6.242168 7.860015 13.984503 14.751982 23.236214 20.652366 9.240455 5.900384 19.230993 11.305487 29.982872 16.226566 10.739599 4.909823 20.859074 10.567683 30.357402 16.96437 10.494005 5.900384 20.730137 12.907984 30.732955 21.020756 9.990538 8.112772 14.991436 18.808368 14.991436 32.084743C1005.356384 386.899162 1004.607324 395.749738 1002.61597 404.116289zM942.650227 362.812581c-0.503467-4.92108-2.88163-9.472745-7.121188-13.644765-4.251837-4.183276-8.994861-7.744381-14.241352-10.694573-5.247514-2.950192-10.377348-5.16258-15.365966-6.638187-5.000897-1.475608-8.749268-1.970888-11.243065-1.475608-2.998287 0-5.000897 0.852414-5.996574 2.581802-1.006933 1.717108-1.25355 3.929496-0.750083 6.638187 0.49221 2.696412 1.24127 5.646604 2.249227 8.850575 0.995677 3.192715 1.744737 6.016017 2.249227 8.482185 2.494821 5.900384 4.989641 11.54801 7.495718 16.96437 2.494821 4.425799 4.989641 8.482185 7.495718 12.170181 2.494821 3.687996 4.989641 5.531993 7.495718 5.531993l12.743232-1.475608c2.998287-0.991584 5.493108-2.212388 7.495718-3.687996 1.991354-0.991584 3.748371-2.466168 5.246491-4.425799 1.499144-1.970888 2.249227-4.183276 2.249227-6.638187L942.652274 362.812581z" transform="translate(0, 812) scale(1, -1)"/>
</svg>
